<svg width="1439" height="1258" viewBox="0 0 1439 1258" fill="none" xmlns="http://www.w3.org/2000/svg">
<path d="M1454 92.5919C1322.64 16.2702 1250.94 -3.81451 1104.53 0.567613C958.125 4.94974 832.277 92.5919 712.444 92.5919C592.612 92.5919 481.304 28.321 342.419 29.7817C203.534 31.2424 11 126.553 11 126.553V1225H1454V92.5919Z" fill="#00A872" fill-opacity="0.17"/>
<path d="M1454 92.5919C1322.64 16.2702 1250.94 -3.81451 1104.53 0.567613C958.125 4.94974 832.277 92.5919 712.444 92.5919C592.612 92.5919 481.304 28.321 342.419 29.7817C203.534 31.2424 11 126.553 11 126.553V1225H1454V92.5919Z" fill="#00A872" fill-opacity="0.17"/>
<path d="M0 122.819C131 46.3101 202.5 26.1761 348.5 30.569C494.5 34.9619 616.5 100.122 736 100.122C855.5 100.122 970 58.3904 1108.5 59.8547C1247 61.3189 1439 156.863 1439 156.863V1258H0V122.819Z" fill="url(#paint0_linear_271_2)"/>
<path d="M0 122.819C131 46.3101 202.5 26.1761 348.5 30.569C494.5 34.9619 616.5 100.122 736 100.122C855.5 100.122 970 58.3904 1108.5 59.8547C1247 61.3189 1439 156.863 1439 156.863V1258H0V122.819Z" fill="url(#paint1_linear_271_2)"/>
<defs>
<linearGradient id="paint0_linear_271_2" x1="0" y1="631.873" x2="1439" y2="631.873" gradientUnits="userSpaceOnUse">
<stop stop-color="#00A872"/>
<stop offset="1" stop-color="#66D99F"/>
</linearGradient>
<linearGradient id="paint1_linear_271_2" x1="0" y1="631.873" x2="1439" y2="631.873" gradientUnits="userSpaceOnUse">
<stop stop-color="#00A872"/>
<stop offset="1" stop-color="#66D99F"/>
</linearGradient>
</defs>
</svg>
